<svg width="100" height="100" viewBox="0 0 100 100" fill="none" xmlns="http://www.w3.org/2000/svg">
<g id="Frame" clip-path="url(#clip0_7558_43366)">
<g id="Group 307">
<g id="Union">
<mask id="path-1-inside-1_7558_43366" fill="white">
<path fill-rule="evenodd" clip-rule="evenodd" d="M63.1891 27.4655C62.8052 27.0189 62.4033 26.5854 61.9839 26.166C57.5726 21.7546 51.5895 19.2764 45.3509 19.2764C39.1122 19.2764 33.1291 21.7546 28.7178 26.166C24.3064 30.5774 21.8281 36.5605 21.8281 42.7991L41.6999 42.7991C40.7374 45.3933 40.2309 48.1613 40.2309 50.9815L63.7536 50.9815H87.2764C87.2764 44.7429 84.7981 38.7598 80.3867 34.3484C75.9753 29.9371 69.9922 27.4588 63.7536 27.4588C63.5652 27.4588 63.377 27.461 63.1891 27.4655Z"/>
</mask>
<path fill-rule="evenodd" clip-rule="evenodd" d="M63.1891 27.4655C62.8052 27.0189 62.4033 26.5854 61.9839 26.166C57.5726 21.7546 51.5895 19.2764 45.3509 19.2764C39.1122 19.2764 33.1291 21.7546 28.7178 26.166C24.3064 30.5774 21.8281 36.5605 21.8281 42.7991L41.6999 42.7991C40.7374 45.3933 40.2309 48.1613 40.2309 50.9815L63.7536 50.9815H87.2764C87.2764 44.7429 84.7981 38.7598 80.3867 34.3484C75.9753 29.9371 69.9922 27.4588 63.7536 27.4588C63.5652 27.4588 63.377 27.461 63.1891 27.4655Z" fill="white"/>
<path d="M63.1891 27.4655L58.2256 31.7325L60.2466 34.0834L63.346 34.0091L63.1891 27.4655ZM61.9839 26.166L66.6123 21.5377V21.5377L61.9839 26.166ZM21.8281 42.7991H15.2827V49.3445L21.8281 49.3445L21.8281 42.7991ZM41.6999 42.7991L47.8366 45.076L51.11 36.2536L41.6999 36.2536L41.6999 42.7991ZM40.2309 50.9815H33.6854V57.527H40.2309L40.2309 50.9815ZM63.7536 50.9815V57.527V50.9815ZM87.2764 50.9815V57.527H93.8218V50.9815H87.2764ZM80.3867 34.3484L75.7584 38.9768L80.3867 34.3484ZM68.1526 23.1986C67.6618 22.6277 67.1482 22.0736 66.6123 21.5377L57.3556 30.7943C57.6584 31.0972 57.9485 31.4101 58.2256 31.7325L68.1526 23.1986ZM66.6123 21.5377C60.9734 15.8988 53.3254 12.7309 45.3509 12.7309V25.8218C49.8535 25.8218 54.1717 27.6105 57.3556 30.7944L66.6123 21.5377ZM45.3509 12.7309C37.3763 12.7309 29.7283 15.8988 24.0894 21.5377L33.3461 30.7943C36.53 27.6105 40.8482 25.8218 45.3509 25.8218V12.7309ZM24.0894 21.5377C18.4506 27.1766 15.2827 34.8245 15.2827 42.7991H28.3736C28.3736 38.2964 30.1623 33.9782 33.3461 30.7943L24.0894 21.5377ZM21.8281 49.3445L41.6999 49.3446L41.6999 36.2536L21.8281 36.2536L21.8281 49.3445ZM35.5632 40.5222C34.3329 43.8381 33.6854 47.3767 33.6854 50.9815H46.7764C46.7764 48.9459 47.1418 46.9485 47.8366 45.076L35.5632 40.5222ZM40.2309 57.527L63.7536 57.527V44.4361L40.2309 44.436L40.2309 57.527ZM63.7536 57.527H87.2764V44.4361H63.7536V57.527ZM93.8218 50.9815C93.8218 43.0069 90.6539 35.359 85.015 29.7201L75.7584 38.9768C78.9422 42.1606 80.7309 46.4789 80.7309 50.9815H93.8218ZM85.015 29.7201C79.3762 24.0812 71.7282 20.9133 63.7536 20.9133V34.0042C68.2563 34.0042 72.5745 35.7929 75.7584 38.9768L85.015 29.7201ZM63.7536 20.9133C63.5128 20.9133 63.2724 20.9162 63.0322 20.922L63.346 34.0091C63.4817 34.0059 63.6176 34.0042 63.7536 34.0042V20.9133Z" fill="#D6A985" mask="url(#path-1-inside-1_7558_43366)"/>
</g>
<g id="Ellipse 73">
<mask id="path-3-inside-2_7558_43366" fill="white">
<path d="M56.7244 50.912C56.7244 44.8362 54.3108 39.0091 50.0145 34.7128C45.7182 30.4166 39.8912 28.0029 33.8153 28.0029C27.7395 28.0029 21.9125 30.4166 17.6162 34.7128C13.3199 39.0091 10.9063 44.8361 10.9063 50.912L33.8153 50.912H56.7244Z"/>
</mask>
<path d="M56.7244 50.912C56.7244 44.8362 54.3108 39.0091 50.0145 34.7128C45.7182 30.4166 39.8912 28.0029 33.8153 28.0029C27.7395 28.0029 21.9125 30.4166 17.6162 34.7128C13.3199 39.0091 10.9063 44.8361 10.9063 50.912L33.8153 50.912H56.7244Z" fill="white" stroke="#D6A985" stroke-width="13.0909" mask="url(#path-3-inside-2_7558_43366)"/>
</g>
<path id="Rectangle 1188" d="M8.49592 51.0557C8.95589 48.4492 11.2207 46.5491 13.8675 46.5491H86.4962C89.1429 46.5491 91.4077 48.4492 91.8677 51.0557L95.333 70.6921C95.9224 74.0321 93.3531 77.0945 89.9614 77.0945H10.4022C7.0106 77.0945 4.44127 74.0321 5.03068 70.6921L8.49592 51.0557Z" fill="white" stroke="#D6A985" stroke-width="6.54546"/>
</g>
</g>
<defs>
<clipPath id="clip0_7558_43366">
<rect width="100" height="100" fill="white" transform="translate(0 0.00195312)"/>
</clipPath>
</defs>
</svg>
